<svg xmlns="http://www.w3.org/2000/svg" xmlns:xlink="http://www.w3.org/1999/xlink"
  style="margin:auto;background:rgba(NaN, NaN, NaN, 0);display:block;z-index:1;position:relative"
  width="1500" height="1000" preserveAspectRatio="xMidYMid" viewBox="0 0 1500 1000">
  <g transform="translate(750,500) scale(1,1) translate(-750,-500)">
    <linearGradient id="lg-0.8790674812207924" x1="0" x2="1" y1="0" y2="0">
      <stop stop-color="#dd1d21" offset="0"></stop>
      <stop stop-color="#fbce07" offset="1"></stop>
    </linearGradient>
    <path
      d="M 1145 500 C 1145 626 979 796 859 835 C 739 874 474 856 400 754 C 326 652 367 377 441 275 C 515 173 742 121 861 160 C 980 199 1145 374 1145 500"
      fill="url(#lg-0.8790674812207924)" opacity="0.4">
      <animate attributeName="d" dur="10s" repeatCount="indefinite"
        keyTimes="0;0.3333333333333333;0.6666666666666666;1" calcmod="spline"
        keySplines="0.3 0.1 0.7 0.9;0.3 0.1 0.7 0.9;0.3 0.1 0.7 0.9" begin="-4s"
        values="M 1145 500 C 1145 626 979 796 859 835 C 739 874 474 856 400 754 C 326 652 367 377 441 275 C 515 173 742 121 861 160 C 980 199 1145 374 1145 500;M 1159 500 C 1159 629 976 777 853 817 C 730 857 480 856 404 751 C 328 646 326 352 402 247 C 478 142 745 97 868 137 C 991 177 1159 371 1159 500;M 1167 500 C 1167 635 978 768 850 809 C 722 850 434 896 355 787 C 276 678 268 316 347 207 C 426 98 730 126 858 168 C 986 210 1167 365 1167 500;M 1145 500 C 1145 626 979 796 859 835 C 739 874 474 856 400 754 C 326 652 367 377 441 275 C 515 173 742 121 861 160 C 980 199 1145 374 1145 500"></animate>
    </path>
    <path
      d="M 1269 500 C 1269 638 983 773 852 815 C 721 857 425 906 344 795 C 263 684 299 342 380 231 C 461 120 712 171 843 213 C 974 255 1269 362 1269 500"
      fill="url(#lg-0.8790674812207924)" opacity="0.4">
      <animate attributeName="d" dur="10s" repeatCount="indefinite"
        keyTimes="0;0.3333333333333333;0.6666666666666666;1" calcmod="spline"
        keySplines="0.3 0.1 0.7 0.9;0.3 0.1 0.7 0.9;0.3 0.1 0.7 0.9" begin="-4s"
        values="M 1269 500 C 1269 638 983 773 852 815 C 721 857 425 906 344 795 C 263 684 299 342 380 231 C 461 120 712 171 843 213 C 974 255 1269 362 1269 500;M 1223 500 C 1223 637 1006 844 875 886 C 744 928 470 873 389 762 C 308 651 341 373 422 262 C 503 151 712 172 843 214 C 974 256 1223 363 1223 500;M 1248 500 C 1248 632 970 750 845 791 C 720 832 468 867 391 761 C 314 655 289 328 366 221 C 443 114 741 101 866 142 C 991 183 1248 368 1248 500;M 1269 500 C 1269 638 983 773 852 815 C 721 857 425 906 344 795 C 263 684 299 342 380 231 C 461 120 712 171 843 213 C 974 255 1269 362 1269 500"></animate>
    </path>
    <path
      d="M 1244 500 C 1244 629 967 749 844 789 C 721 829 450 878 374 773 C 298 668 319 347 395 242 C 471 137 723 165 846 205 C 969 245 1244 371 1244 500"
      fill="url(#lg-0.8790674812207924)" opacity="0.4">
      <animate attributeName="d" dur="10s" repeatCount="indefinite"
        keyTimes="0;0.3333333333333333;0.6666666666666666;1" calcmod="spline"
        keySplines="0.3 0.1 0.7 0.9;0.3 0.1 0.7 0.9;0.3 0.1 0.7 0.9" begin="-4s"
        values="M 1244 500 C 1244 629 967 749 844 789 C 721 829 450 878 374 773 C 298 668 319 347 395 242 C 471 137 723 165 846 205 C 969 245 1244 371 1244 500;M 1203 500 C 1203 617 949 733 837 769 C 725 805 546 793 477 698 C 408 603 392 385 461 290 C 530 195 742 147 853 183 C 964 219 1203 383 1203 500;M 1157 500 C 1157 620 959 756 845 793 C 731 830 528 809 458 712 C 388 615 369 371 439 274 C 509 177 737 152 851 189 C 965 226 1157 380 1157 500;M 1244 500 C 1244 629 967 749 844 789 C 721 829 450 878 374 773 C 298 668 319 347 395 242 C 471 137 723 165 846 205 C 969 245 1244 371 1244 500"></animate>
    </path>
    <path
      d="M 1236 500 C 1236 635 986 790 858 832 C 730 874 506 843 427 734 C 348 625 267 315 346 206 C 425 97 719 159 847 200 C 975 241 1236 365 1236 500"
      fill="url(#lg-0.8790674812207924)" opacity="0.4">
      <animate attributeName="d" dur="10s" repeatCount="indefinite"
        keyTimes="0;0.3333333333333333;0.6666666666666666;1" calcmod="spline"
        keySplines="0.3 0.1 0.7 0.9;0.3 0.1 0.7 0.9;0.3 0.1 0.7 0.9" begin="-4s"
        values="M 1236 500 C 1236 635 986 790 858 832 C 730 874 506 843 427 734 C 348 625 267 315 346 206 C 425 97 719 159 847 200 C 975 241 1236 365 1236 500;M 1252 500 C 1252 638 996 812 865 855 C 734 898 419 911 338 799 C 257 687 327 364 408 252 C 489 140 743 77 874 120 C 1005 163 1252 362 1252 500;M 1186 500 C 1186 626 958 732 838 771 C 718 810 487 847 413 745 C 339 643 311 337 385 235 C 459 133 747 102 867 141 C 987 180 1186 374 1186 500;M 1236 500 C 1236 635 986 790 858 832 C 730 874 506 843 427 734 C 348 625 267 315 346 206 C 425 97 719 159 847 200 C 975 241 1236 365 1236 500"></animate>
    </path>
    <path
      d="M 1258 500 C 1258 640 982 762 849 805 C 716 848 484 866 402 753 C 320 640 331 368 413 255 C 495 142 729 113 862 156 C 995 199 1258 360 1258 500"
      fill="url(#lg-0.8790674812207924)" opacity="0.4">
      <animate attributeName="d" dur="10s" repeatCount="indefinite"
        keyTimes="0;0.3333333333333333;0.6666666666666666;1" calcmod="spline"
        keySplines="0.3 0.1 0.7 0.9;0.3 0.1 0.7 0.9;0.3 0.1 0.7 0.9" begin="-4s"
        values="M 1258 500 C 1258 640 982 762 849 805 C 716 848 484 866 402 753 C 320 640 331 368 413 255 C 495 142 729 113 862 156 C 995 199 1258 360 1258 500;M 1235 500 C 1235 636 996 816 866 858 C 736 900 504 847 424 737 C 344 627 286 331 366 221 C 446 111 717 164 846 206 C 975 248 1235 364 1235 500;M 1195 500 C 1195 625 974 783 855 822 C 736 861 515 825 442 724 C 369 623 312 336 385 235 C 458 134 721 184 840 222 C 959 260 1195 375 1195 500;M 1258 500 C 1258 640 982 762 849 805 C 716 848 484 866 402 753 C 320 640 331 368 413 255 C 495 142 729 113 862 156 C 995 199 1258 360 1258 500"></animate>
    </path>
  </g>
</svg>